<svg width="26" height="23" viewBox="0 0 26 23" fill="none" xmlns="http://www.w3.org/2000/svg">
<path d="M17.7127 1.53613C15.7653 1.53613 16.1634 3.57702 16.1634 5.99634C16.1634 8.41566 15.7653 10.2973 17.7127 10.2973C19.6601 10.2973 21.2388 8.33601 21.2388 5.91669C21.2388 3.49738 19.6601 1.53613 17.7127 1.53613Z" stroke="black" stroke-linecap="round" stroke-linejoin="round"/>
<path d="M18.2256 13.6424C17.925 14.063 17.925 14.063 18.0547 15.626V17.0141C18.0547 17.894 17.8686 20.5095 18.5676 20.6513C19.5933 20.6513 19.8288 20.6513 23.7876 20.1741C24.7221 20.1741 24.9999 19.2821 24.9999 18.4022V17.0141C24.9999 14.5948 23.4212 12.6336 21.4739 12.6336H21.1533C20.9799 12.6336 20.8075 12.6676 20.6426 12.7345L19.8288 13.0647C18.4538 13.6224 18.0547 13.8258 18.1002 13.8258C17.9353 13.7589 18.3991 13.6424 18.2256 13.6424Z" stroke="black" stroke-linecap="round" stroke-linejoin="round"/>
<path d="M8.9496 1.21753C6.82519 1.21753 5.10302 3.35707 5.10302 5.99632C5.10302 8.63558 6.82519 10.7751 8.9496 10.7751C11.074 10.7751 12.7962 8.63558 12.7962 5.99632C12.7962 3.35707 11.074 1.21753 8.9496 1.21753Z" stroke="black" stroke-linecap="round" stroke-linejoin="round"/>
<path d="M4.84658 13.3238C2.72217 13.3238 1 15.4633 1 18.1026V19.6169C1 20.5768 1.55994 21.3952 2.32248 21.5499C6.71151 22.4401 11.1877 22.4401 15.5767 21.5499C16.3393 21.3952 16.8992 20.5768 16.8992 19.6169V18.1026C16.8992 15.4633 15.177 13.3238 13.0526 13.3238H12.703C12.5137 13.3238 12.3257 13.361 12.1458 13.434L11.258 13.7941C9.75803 14.4026 8.14118 14.4026 6.64123 13.7941L5.75342 13.434C5.57353 13.361 5.38547 13.3238 5.19623 13.3238H4.84658Z" stroke="black" stroke-linecap="round" stroke-linejoin="round"/>
</svg>
