<svg width="19" height="18" viewBox="0 0 19 18" fill="none" xmlns="http://www.w3.org/2000/svg">
<path fill-rule="evenodd" clip-rule="evenodd" d="M19 8.71753C19 8.10521 18.5884 7.60883 18.0806 7.60883H0.919355C0.411609 7.60883 0 8.10521 0 8.71753C0 9.32985 0.411609 9.82623 0.919355 9.82623H18.0806C18.5884 9.82623 19 9.32985 19 8.71753Z" fill="black"/>
<path fill-rule="evenodd" clip-rule="evenodd" d="M19 1.32622C19 0.713909 18.5884 0.217529 18.0806 0.217529H0.919355C0.411609 0.217529 0 0.713909 0 1.32622C0 1.93854 0.411609 2.43492 0.919355 2.43492H18.0806C18.5884 2.43492 19 1.93854 19 1.32622Z" fill="black"/>
<path fill-rule="evenodd" clip-rule="evenodd" d="M19 16.1088C19 15.4965 18.5884 15.0001 18.0806 15.0001H0.919355C0.411609 15.0001 0 15.4965 0 16.1088C0 16.7211 0.411609 17.2175 0.919355 17.2175H18.0806C18.5884 17.2175 19 16.7211 19 16.1088Z" fill="black"/>
</svg>
