<svg width="19" height="22" viewBox="0 0 19 22" fill="none" xmlns="http://www.w3.org/2000/svg">
<path fill-rule="evenodd" clip-rule="evenodd" d="M10.6209 2.23019C10.6209 1.67091 10.1191 1.21753 9.50001 1.21753C8.88095 1.21753 8.3791 1.67091 8.3791 2.23019V2.98968H7.7543C5.26021 2.98968 3.19596 4.74159 3.04027 6.99044L2.79255 10.5686C2.6981 11.9329 2.19113 13.2476 1.32685 14.3695C0.545937 15.3832 1.24114 16.7833 2.59848 16.9305L6.41753 17.3445V18.4327C6.41753 19.9707 7.7976 21.2175 9.50001 21.2175C11.2024 21.2175 12.5825 19.9707 12.5825 18.4327V17.3445L16.4015 16.9305C17.7589 16.7833 18.4541 15.3832 17.6732 14.3695C16.8089 13.2476 16.3019 11.9329 16.2074 10.5686L15.9597 6.99043C15.804 4.74159 13.7398 2.98968 11.2457 2.98968H10.6209V2.23019ZM8.09888 18.4327C8.09888 19.1318 8.72618 19.6985 9.50001 19.6985C10.2738 19.6985 10.9011 19.1318 10.9011 18.4327V17.6732H8.09888V18.4327Z" stroke="black"/>
</svg>
