<svg width="20" height="23" viewBox="0 0 20 23" fill="none" xmlns="http://www.w3.org/2000/svg">
<path d="M10 1.21753C7.59489 1.21753 5.64516 3.35707 5.64516 5.99632C5.64516 8.63558 7.59489 10.7751 10 10.7751C12.4051 10.7751 14.3548 8.63558 14.3548 5.99632C14.3548 3.35707 12.4051 1.21753 10 1.21753Z" stroke="black" stroke-linecap="round" stroke-linejoin="round"/>
<path d="M5.35484 13.3238C2.94973 13.3238 1 15.4633 1 18.1026V19.6169C1 20.5768 1.63393 21.3952 2.49722 21.5499C7.46618 22.4401 12.5338 22.4401 17.5028 21.5499C18.3661 21.3952 19 20.5768 19 19.6169V18.1026C19 15.4633 17.0503 13.3238 14.6452 13.3238H14.2493C14.0351 13.3238 13.8222 13.361 13.6185 13.434L12.6134 13.7941C10.9152 14.4026 9.08475 14.4026 7.38662 13.7941L6.3815 13.434C6.17784 13.361 5.96494 13.3238 5.75069 13.3238H5.35484Z" stroke="black" stroke-linecap="round" stroke-linejoin="round"/>
</svg>
